<svg width="30" height="30" viewBox="0 0 30 30" fill="none" xmlns="http://www.w3.org/2000/svg">
<path d="M16.6725 0.641844C16.2134 0.228639 15.6176 0 15 0C14.3824 0 13.7866 0.228639 13.3275 0.641844L0 12.6368V25.6368C0 26.6977 0.421427 27.7151 1.17157 28.4653C1.92172 29.2154 2.93913 29.6368 4 29.6368H26C27.0609 29.6368 28.0783 29.2154 28.8284 28.4653C29.5786 27.7151 30 26.6977 30 25.6368V12.6368L16.6725 0.641844ZM18.75 27.1331H11.25V20.8506C11.25 19.856 11.6451 18.9022 12.3483 18.1989C13.0516 17.4957 14.0054 17.1006 15 17.1006C15.9946 17.1006 16.9484 17.4957 17.6517 18.1989C18.3549 18.9022 18.75 19.856 18.75 20.8506V27.1331ZM27.5 25.6331C27.5 26.0309 27.342 26.4125 27.0607 26.6938C26.7794 26.9751 26.3978 27.1331 26 27.1331H21.25V20.8506C21.25 19.193 20.5915 17.6033 19.4194 16.4312C18.2473 15.2591 16.6576 14.6006 15 14.6006C13.3424 14.6006 11.7527 15.2591 10.5806 16.4312C9.40848 17.6033 8.75 19.193 8.75 20.8506V27.1331H4C3.60218 27.1331 3.22064 26.9751 2.93934 26.6938C2.65804 26.4125 2.5 26.0309 2.5 25.6331V13.7493L15 2.49934L27.5 13.7493V25.6331Z" fill="white"/>
</svg>
