<svg width="30" height="33" viewBox="0 0 30 33" fill="none" xmlns="http://www.w3.org/2000/svg">
<path d="M29.8562 22.4504L26.4464 10.0092C25.7182 7.34792 24.1317 5.00961 21.9392 3.36647C19.7467 1.72333 17.0743 0.869794 14.3473 0.941698C11.6202 1.0136 8.99534 2.00682 6.89032 3.76327C4.7853 5.51972 3.32113 7.93847 2.73085 10.6346L0.0934602 22.6495C-0.0341564 23.2316 -0.0310437 23.8353 0.102569 24.416C0.236182 24.9967 0.496884 25.5396 0.865443 26.0047C1.234 26.4698 1.70101 26.8452 2.23202 27.1032C2.76303 27.3612 3.34448 27.4952 3.93348 27.4954H8.66399C8.965 28.996 9.76921 30.3451 10.9404 31.3141C12.1116 32.2831 13.5776 32.8125 15.0902 32.8125C16.6029 32.8125 18.0689 32.2831 19.2401 31.3141C20.4113 30.3451 21.2155 28.996 21.5165 27.4954H26.0674C26.6734 27.4951 27.2712 27.3531 27.8141 27.0804C28.357 26.8078 28.8304 26.4118 29.1972 25.9235C29.5641 25.4352 29.8146 24.8677 29.9291 24.2652C30.0436 23.6628 30.0178 23.0417 29.8562 22.4504ZM15.0902 30.1506C14.2794 30.1472 13.4894 29.8903 12.8283 29.415C12.1673 28.9397 11.6674 28.2692 11.3971 27.4954H18.7834C18.5131 28.2692 18.0132 28.9397 17.3522 29.415C16.6911 29.8903 15.9011 30.1472 15.0902 30.1506ZM27.11 24.3157C26.9876 24.4799 26.829 24.6129 26.6468 24.7039C26.4647 24.795 26.264 24.8416 26.0608 24.8401H3.93348C3.7371 24.8401 3.54323 24.7954 3.36619 24.7094C3.18915 24.6234 3.03345 24.4982 2.91059 24.3431C2.78773 24.188 2.70084 24.007 2.65634 23.8134C2.61184 23.6197 2.61086 23.4185 2.65347 23.2244L5.29086 11.2094C5.75559 9.09346 6.9057 7.19549 8.55836 5.81721C10.211 4.43893 12.2714 3.65946 14.4119 3.60269C16.5525 3.54592 18.6503 4.21513 20.372 5.50392C22.0937 6.79271 23.3404 8.62712 23.9139 10.7155L27.3237 23.1567C27.3794 23.3534 27.3891 23.5606 27.352 23.7617C27.3149 23.9629 27.232 24.1526 27.11 24.3157Z" fill="white"/>
</svg>
